<?xml version="1.0" encoding="iso-8859-1"?>
<!-- Uploaded to: SVG Repo, www.svgrepo.com, Generator: SVG Repo Mixer Tools -->
<svg version="1.1" id="Layer_1" xmlns="http://www.w3.org/2000/svg" xmlns:xlink="http://www.w3.org/1999/xlink" 
	 viewBox="0 0 512.001 512.001" xml:space="preserve">
<g>
	<rect x="334.834" y="210.778" style="fill:#9B9B9B;" width="31.346" height="134.232"/>
	<rect x="407.743" y="263.982" style="fill:#9B9B9B;" width="31.346" height="81.039"/>
</g>
<g>
	<path style="fill:#C1C1C1;" d="M512,324.1l-31.346,10.457v-40.213c-57.304-4.541-110.489-33.954-151.151-83.972
		c-41.363-50.88-65.087-117.505-67.39-188.675l15.488-11.461h15.673c0,139.716,91.089,253.382,203.053,253.382H512V324.1z"/>
	<rect x="72.908" y="263.982" style="fill:#C1C1C1;" width="31.346" height="81.039"/>
	<rect x="145.82" y="210.778" style="fill:#C1C1C1;" width="31.346" height="134.243"/>
</g>
<path style="fill:#DFDFDF;" d="M31.346,334.557L0,324.1v-60.483h15.673c111.963,0,203.052-113.666,203.052-253.382h15.673
	l15.496,11.207c-2.255,71.266-25.985,137.989-67.397,188.929c-40.662,50.018-93.848,79.431-151.151,83.972V334.557z"/>
<polygon style="fill:#9B9B9B;" points="277.603,324.1 277.603,10.234 256.001,10.234 245.544,345.014 "/>
<polygon style="fill:#C1C1C1;" points="256.001,10.234 234.398,10.234 234.398,324.1 256.001,345.014 "/>
<path style="fill:#E43138;" d="M277.603,324.1h-21.602l-20.914,42.307l20.914,135.36h23.011V430.51
	c0-34.42,27.903-62.321,62.322-62.321s62.322,27.903,62.322,62.321v71.257h46.023V430.51c0-34.42,27.903-62.321,62.322-62.321
	v-44.088H277.603V324.1z"/>
<path style="fill:#F25F67;" d="M234.398,324.1H0v44.088c34.42,0,62.322,27.903,62.322,62.321v71.257h46.023v-71.257
	c0-34.42,27.903-62.321,62.322-62.321l0,0c34.42,0,62.322,27.903,62.322,62.321v71.257h23.011V324.099h-21.602V324.1z"/>
</svg>